# xmcd
# 
# Track frame offsets:
#     150
#     19545
#     37392
#     59790
#     76540
#     92657
#     111345
#     130002
#     135460
#     146377
#     157047
#     172975
#     187980
#     204520
#     228157
# 
# Disc length: 3244
# 
# Revision: 7
# Processed by: cddbd v1.5.2PL0 Copyright (c) Steve Scherf et al.
# Submitted via: BonkEnc v1.0.5
# 
DISCID=c20caa0f
DTITLE=Marianne Faithfull - 20th Century Blues
DYEAR=1997
DGENRE=R&B
TTITLE0=Alabama Song
TTITLE1=Want to Buy Some Illusions
TTITLE2=Pirate Jenny
TTITLE3=Salomon Song
TTITLE4=Boulevard of Broken Dreams
TTITLE5=Complainte de la Seine
TTITLE6=The Ballad of the Soldier's Wife
TTITLE7=Intro
TTITLE8=Mon Ami (My Friend)
TTITLE9=Falling in Love Again
TTITLE10=Mack the Knife
TTITLE11=20th Century Blues
TTITLE12=Don't Forget Me
TTITLE13=Surabaya Johnny
TTITLE14=Outro: Street Singer's Farewell
EXTD=YEAR: 1996
EXTT0=
EXTT1=
EXTT2=
EXTT3=
EXTT4=
EXTT5=
EXTT6=
EXTT7=
EXTT8=
EXTT9=
EXTT10=
EXTT11=
EXTT12=
EXTT13=
EXTT14=
PLAYORDER=
